<svg xmlns="http://www.w3.org/2000/svg" viewBox="0 0 512 512" role="img" aria-label="AlertaBombero">
  <rect width="512" height="512" rx="112" fill="#D62828"/>
  <path d="M256 48l152 60v116c0 106-63 199-152 240-89-41-152-134-152-240V108l152-60z" fill="#fff"/>
  <path d="M256 82l116 46v94c0 82-47 153-116 190-69-37-116-108-116-190v-94l116-46z" fill="#EF4444"/>
  <path d="M258 348c50 0 91-39 91-88 0-34-20-62-47-78 5 32-12 51-31 60 5-42-18-75-49-98 4 44-32 72-47 105-22 48 14 99 83 99z" fill="#F59E0B"/>
  <path d="M257 330c26 0 47-20 47-45 0-20-12-36-29-45 2 20-8 31-22 39 2-23-10-42-28-56 2 25-19 41-27 60-12 26 8 47 59 47z" fill="#fff"/>
</svg>
